<svg width="38" height="38" viewBox="0 0 38 38" fill="none" xmlns="http://www.w3.org/2000/svg">
<path fill-rule="evenodd" clip-rule="evenodd" d="M19 0C8.50883 0 0 8.50567 0 19C0 29.4928 8.50883 38 19 38C29.4928 38 38 29.4928 38 19C38 8.50567 29.4928 0 19 0ZM24.1047 28.2958C24.4023 28.5063 24.7855 28.5586 25.1275 28.4303C25.4679 28.3005 25.7197 28.0076 25.7957 27.6529C26.5984 23.8814 28.5459 14.3339 29.2758 10.9044C29.3313 10.6448 29.2394 10.3756 29.0368 10.203C28.8325 10.0304 28.5507 9.98133 28.3005 10.0732C24.4277 11.5077 12.5004 15.9822 7.62533 17.7856C7.31658 17.9012 7.1155 18.1973 7.125 18.525C7.13608 18.8512 7.35617 19.1346 7.67283 19.2296C9.85942 19.8835 12.7284 20.7939 12.7284 20.7939C12.7284 20.7939 14.0695 24.8441 14.7677 26.9024C14.8564 27.1621 15.0591 27.3647 15.3251 27.4344C15.5927 27.5041 15.8761 27.4312 16.0756 27.2428C17.1982 26.1836 18.9335 24.5448 18.9335 24.5448C18.9335 24.5448 22.2332 26.9626 24.1047 28.2958ZM13.9349 20.2809L15.4866 25.3967L15.8317 22.1572C15.8317 22.1572 21.8215 16.7533 25.2383 13.6737C25.3381 13.5834 25.3507 13.4314 25.2684 13.3253C25.1861 13.2193 25.0341 13.1939 24.9217 13.2668C20.9633 15.7937 13.9349 20.2809 13.9349 20.2809Z" fill="white"/>
</svg>
