<svg width="45" height="38" viewBox="0 0 45 38" fill="none" xmlns="http://www.w3.org/2000/svg">
<g clip-path="url(#clip0_1_130)">
<path d="M40.2732 9.5539C40.3004 9.95812 40.3004 10.3623 40.3004 10.7703C40.3004 23.2004 31.0827 37.5361 14.2276 37.5361V37.5286C9.2486 37.5361 4.37299 36.0719 0.181458 33.3114C0.905449 33.4008 1.63307 33.4455 2.36251 33.4473C6.48872 33.4511 10.497 32.0298 13.7432 29.4126C9.82198 29.3363 6.38347 26.7116 5.18226 22.88C6.55585 23.1519 7.97118 23.0961 9.31936 22.7179C5.04436 21.8313 1.96876 17.9754 1.96876 13.4973C1.96876 13.4564 1.96876 13.4172 1.96876 13.3781C3.24255 14.1065 4.66876 14.5107 6.12763 14.5554C2.10122 11.7929 0.860087 6.2941 3.29154 1.99489C7.94396 7.87185 14.8083 11.4446 22.177 11.8227C21.4385 8.55547 22.4474 5.13175 24.828 2.83498C28.5188 -0.726585 34.3234 -0.544036 37.7927 3.24292C39.845 2.82753 41.8119 2.05449 43.6119 0.959199C42.9278 3.13675 41.4962 4.98645 39.5837 6.16185C41.4 5.94204 43.1746 5.44283 44.8458 4.68096C43.6155 6.57351 42.0659 8.22204 40.2732 9.5539Z" fill="white"/>
</g>
<defs>
<clipPath id="clip0_1_130">
<rect width="45" height="38" fill="white"/>
</clipPath>
</defs>
</svg>
