<svg width="58" height="67" viewBox="0 0 58 67" fill="none" xmlns="http://www.w3.org/2000/svg">
<g clip-path="url(#clip0_1_153)">
<path d="M22.7451 15.2462C22.0214 15.1424 21.9869 15.1079 22.3315 15.0733C22.9863 14.9696 24.5026 15.1079 25.571 15.3499C28.0523 15.9376 30.2923 17.4587 32.6702 20.1208L33.2905 20.8468L34.1865 20.7085C38.0119 20.0862 41.9406 20.5702 45.2145 22.0914C46.1105 22.5062 47.5234 23.3359 47.6958 23.5434C47.7647 23.6125 47.8681 24.0619 47.937 24.5114C48.1782 26.1362 48.0748 27.3463 47.5579 28.2797C47.2822 28.7983 47.2822 28.9366 47.4545 29.386C47.5924 29.7317 48.0059 29.9737 48.385 29.9737C49.2121 29.9737 50.0737 28.66 50.4872 26.8277L50.6595 26.1017L50.9697 26.4474C52.7272 28.418 54.1057 31.1491 54.3125 33.0852L54.3814 33.6037L54.0713 33.1543C53.5543 32.3592 53.0719 31.8406 52.4171 31.3911C51.2454 30.596 50.0047 30.354 46.7308 30.1811C43.7671 30.0083 42.0784 29.7663 40.4242 29.2131C37.5983 28.2797 36.1509 27.0697 32.8081 22.6099C31.3262 20.6393 30.3957 19.5676 29.4652 18.6688C27.4319 16.6982 25.3987 15.661 22.7451 15.2462Z" fill="#62D1E5"/>
<path d="M48.4195 19.6367C48.4884 18.323 48.6607 17.4587 49.0398 16.6635C49.1777 16.3524 49.3155 16.0758 49.35 16.0758C49.3844 16.0758 49.3155 16.3178 49.2121 16.5944C48.9364 17.355 48.902 18.4267 49.0743 19.6367C49.3155 21.1924 49.4189 21.3999 51.0731 23.0939C51.8313 23.889 52.7273 24.8916 53.0719 25.3065L53.6578 26.067L53.0719 25.5139C52.3482 24.8225 50.694 23.5087 50.3149 23.3359C50.0737 23.1976 50.0392 23.1976 49.8669 23.3704C49.7291 23.5087 49.6946 23.7162 49.6946 24.7187C49.6601 26.2745 49.4534 27.2425 48.9364 28.2451C48.6607 28.7636 48.6263 28.6599 48.8675 28.0722C49.0398 27.6228 49.0743 27.4153 49.0743 25.9287C49.0743 22.921 48.7296 22.195 46.6275 20.985C46.1105 20.6738 45.2145 20.2244 44.6976 19.9824C44.1462 19.7404 43.7326 19.533 43.7671 19.533C43.836 19.4638 45.8693 20.0516 46.6619 20.3973C47.8681 20.8813 48.0749 20.9158 48.2127 20.8813C48.3161 20.7776 48.385 20.501 48.4195 19.6367Z" fill="#62D1E5"/>
<path d="M24.1581 24.788C22.7106 22.7828 21.7802 19.6713 21.9869 17.355L22.0559 16.629L22.4005 16.6982C23.0208 16.8019 24.0891 17.2167 24.6061 17.5279C25.9846 18.3576 26.6049 19.4985 27.1907 22.3334C27.363 23.1631 27.6043 24.1311 27.7077 24.4422C27.88 24.9608 28.5348 26.1708 29.0862 26.9314C29.4652 27.4845 29.224 27.7611 28.3625 27.692C27.0529 27.5537 25.2953 26.3437 24.1581 24.788Z" fill="#62D1E5"/>
<path d="M46.6619 39.8266C39.8384 37.0609 37.426 34.6755 37.426 30.6306C37.426 30.0428 37.4605 29.5588 37.4605 29.5588C37.4949 29.5588 37.7362 29.7663 38.0463 30.0083C39.4248 31.1146 40.9756 31.5986 45.2834 32.2209C47.7992 32.6011 49.2466 32.8777 50.5561 33.3272C54.7261 34.71 57.3108 37.5449 57.9311 41.3824C58.1034 42.4887 58 44.5975 57.7243 45.7038C57.4831 46.5681 56.7938 48.1584 56.6215 48.193C56.587 48.193 56.5181 48.0201 56.5181 47.7436C56.4492 46.2916 55.7255 44.9087 54.5193 43.837C53.0719 42.5924 51.2109 41.6589 46.6619 39.8266Z" fill="#62D1E5"/>
<path d="M41.8372 40.9675C41.7683 40.449 41.596 39.7921 41.4926 39.5155L41.3203 38.9969L41.6304 39.3772C42.0784 39.8958 42.4231 40.5181 42.7332 41.3824C42.9745 42.0393 42.9745 42.2467 42.9745 43.3184C42.9745 44.3556 42.94 44.5976 42.7332 45.1853C42.3886 46.1187 41.975 46.7756 41.2858 47.5016C40.0452 48.7807 38.4254 49.4722 36.1165 49.7833C35.7029 49.8179 34.5312 49.9216 33.4973 49.9908C30.9127 50.129 29.1895 50.4056 27.6387 50.9588C27.432 51.0279 27.2252 51.097 27.1907 51.0625C27.1218 50.9933 28.1901 50.371 29.0517 49.9562C30.2579 49.3685 31.4985 49.0573 34.221 48.5733C35.5651 48.3659 36.9436 48.0893 37.2882 47.951C40.6999 46.8793 42.3886 44.2173 41.8372 40.9675Z" fill="#62D1E5"/>
<path d="M44.9732 46.5335C44.0772 44.5629 43.8704 42.696 44.3529 40.9329C44.4218 40.76 44.4908 40.5872 44.5597 40.5872C44.6286 40.5872 44.8354 40.6909 45.0422 40.8292C45.4557 41.1057 46.3173 41.5897 48.5228 42.7997C51.3143 44.3209 52.8995 45.4963 54.0023 46.8446C54.9673 48.0201 55.5531 49.3684 55.8288 51.0278C56.0012 51.9613 55.8978 54.2084 55.6565 55.1419C54.8984 58.0804 53.1752 60.4313 50.6595 61.7796C50.2804 61.9871 49.9703 62.1253 49.9358 62.1253C49.9013 62.1253 50.0392 61.7796 50.246 61.3648C51.0731 59.6016 51.1764 57.9076 50.5561 56.0061C50.177 54.8307 49.3844 53.4133 47.7991 51.0278C45.9037 48.2621 45.4557 47.5361 44.9732 46.5335Z" fill="#62D1E5"/>
<path d="M19.2989 57.1125C21.8491 54.9691 24.9852 53.4479 27.88 52.9639C29.1206 52.7565 31.1884 52.8256 32.3256 53.1368C34.1521 53.6208 35.8063 54.6579 36.6679 55.9371C37.495 57.1817 37.8741 58.2534 38.2532 60.6388C38.391 61.5723 38.5633 62.5403 38.5978 62.7477C38.8735 63.9923 39.4249 64.9603 40.1141 65.4789C41.1824 66.274 43.0434 66.3086 44.8699 65.6172C45.1801 65.5134 45.4558 65.4097 45.4558 65.4443C45.5247 65.5134 44.5942 66.1357 43.9739 66.4469C43.1123 66.8963 42.4231 67.0346 41.4926 67.0346C39.8384 67.0346 38.4255 66.1703 37.2882 64.4417C37.047 64.096 36.5645 63.0934 36.151 62.16C34.9448 59.3597 34.3245 58.53 32.9115 57.5965C31.6709 56.8014 30.0856 56.6285 28.8794 57.2162C27.2942 57.9768 26.8806 60.0165 27.9834 61.2611C28.4314 61.7797 29.2585 62.1946 29.9477 62.2983C31.2228 62.4711 32.3256 61.4686 32.3256 60.1894C32.3256 59.3597 32.0155 58.8757 31.1884 58.4954C30.0856 58.0114 28.8794 58.5645 28.9139 59.6363C28.9139 60.0857 29.1207 60.3623 29.5687 60.5697C29.8444 60.708 29.8444 60.708 29.6376 60.6734C28.6382 60.466 28.3969 59.2214 29.1896 58.4262C30.1545 57.4582 32.1878 57.8731 32.877 59.2214C33.1527 59.7745 33.1872 60.8808 32.946 61.5723C32.3601 63.0934 30.7059 63.8886 29.0173 63.4391C27.88 63.128 27.3975 62.8169 26.019 61.3994C23.6067 58.9102 22.6762 58.4262 19.23 57.9077L18.5752 57.8039L19.2989 57.1125Z" fill="#62D1E5"/>
<path fill-rule="evenodd" clip-rule="evenodd" d="M1.17179 1.48658C9.20149 11.2704 21.5734 26.4819 22.1938 27.3117C22.7107 28.0031 22.5039 28.66 21.6424 29.144C21.1599 29.4205 20.1605 29.6971 19.678 29.6971C19.1266 29.6971 18.4718 29.4205 18.0238 28.9711C17.7137 28.66 16.3696 26.6894 13.337 21.953C11.028 18.323 9.06365 15.3153 9.02918 15.2807C8.89133 15.2116 8.89133 15.2116 13.0957 22.7482C15.7493 27.4845 16.6109 29.1785 16.6109 29.386C16.6109 29.8354 16.473 30.0774 15.9216 30.6997C14.9912 31.7368 14.5776 32.9123 14.2674 35.3669C13.9228 38.098 12.9923 40.0341 10.3387 43.3184C8.78795 45.2544 8.54671 45.6001 8.16763 46.3953C7.68515 47.3633 7.54731 47.9164 7.47838 49.161C7.40946 50.4747 7.54731 51.3044 7.92639 52.549C8.27101 53.6553 8.6501 54.3813 9.58058 55.7988C10.3732 57.0433 10.8557 57.9768 10.8557 58.3225C10.8557 58.5991 10.9246 58.5991 12.1652 58.3225C15.129 57.6311 17.5758 56.4556 18.9199 55.0036C19.7469 54.1048 19.9537 53.6207 19.9537 52.3762C19.9537 51.581 19.9193 51.4082 19.7125 50.9242C19.3679 50.1636 18.7131 49.5413 17.3001 48.5733C15.4392 47.2941 14.6465 46.257 14.4398 44.8741C14.2674 43.6987 14.4742 42.9035 15.5081 40.7255C16.5764 38.4783 16.8521 37.5449 17.0244 35.2632C17.1278 33.8111 17.3001 33.2234 17.7137 32.774C18.1617 32.29 18.5408 32.1171 19.6091 31.9788C21.3667 31.7368 22.5039 31.2874 23.3999 30.4231C24.1926 29.6971 24.5372 28.9711 24.5717 27.8994L24.6061 27.1042L24.1581 26.6202C22.5384 24.7534 0.103455 0 6.80544e-05 0C-0.0343942 0 0.517002 0.656863 1.17179 1.48658ZM11.7517 50.6476C12.1308 49.9907 11.924 49.161 11.3037 48.7461C10.7178 48.3658 9.82182 48.5387 9.82182 49.0573C9.82182 49.1956 9.89074 49.3338 10.0975 49.403C10.4077 49.5759 10.4421 49.7487 10.2009 50.129C9.95966 50.5093 9.95966 50.855 10.2698 51.097C10.7523 51.4773 11.4071 51.2699 11.7517 50.6476Z" fill="#62D1E5"/>
<path fill-rule="evenodd" clip-rule="evenodd" d="M25.7089 32.4628C24.8818 32.7048 24.0891 33.6037 23.8479 34.5025C23.7101 35.0557 23.779 36.0583 24.0202 36.3694C24.3993 36.8534 24.7439 36.9917 25.7089 36.9917C27.6043 36.9917 29.224 36.162 29.3963 35.1594C29.5686 34.3297 28.8449 33.1888 27.8455 32.6702C27.3286 32.3937 26.2603 32.2899 25.7089 32.4628ZM27.9145 34.1914C28.1902 33.7765 28.0868 33.3271 27.5698 33.016C26.6394 32.4282 25.2264 32.9122 25.2264 33.8111C25.2264 34.2605 25.9501 34.7445 26.6394 34.7445C27.0874 34.7445 27.7077 34.468 27.9145 34.1914Z" fill="#62D1E5"/>
</g>
<defs>
<clipPath id="clip0_1_153">
<rect width="58" height="67" fill="white"/>
</clipPath>
</defs>
</svg>
